<mxfile host="app.diagrams.net" modified="2023-12-05T10:44:52.690Z" agent="Mozilla/5.0 (X11; Linux x86_64; rv:120.0) Gecko/20100101 Firefox/120.0" version="22.1.5" etag="IvAFqav2lqWLZKbOSxKk" type="github">
  <diagram name="Pagina-1" id="hhdhXkM0eME5TCWnKQdv">
    <mxGraphModel>
      <root>
        <mxCell id="0" />
        <mxCell id="1" parent="0" />
      </root>
    </mxGraphModel>
  </diagram>
</mxfile>
